<svg viewBox="0 0 244 190" xmlns="http://www.w3.org/2000/svg" xmlns:xlink="http://www.w3.org/1999/xlink"><defs><path d="M8.41 0h197a8 8 0 018 8v113a8 8 0 01-8 8h-197a8 8 0 01-8-8V8a8 8 0 018-8z" id="b"/><path d="M4.707 12.293a1 1 0 10-1.414 1.414l5 5a1 1 0 001.414 0l11-11a1 1 0 10-1.414-1.414L9 16.586l-4.293-4.293z" id="c"/><filter x="-11.3%" y="-18.6%" width="122.5%" height="137.2%" filterUnits="objectBoundingBox" id="a"><feOffset in="SourceAlpha" result="shadowOffsetOuter1"/><feGaussianBlur stdDeviation="8" in="shadowOffsetOuter1" result="shadowBlurOuter1"/><feColorMatrix values="0 0 0 0 0.105882353 0 0 0 0 0.266666667 0 0 0 0 0.474509804 0 0 0 0.2 0" in="shadowBlurOuter1"/></filter></defs><g transform="translate(2 -.719)" fill="none" fill-rule="evenodd"><circle fill="#EDF3F7" cx="16" cy="138.885" r="16"/><path fill="#EDF3F7" d="M176.094 67.719l61.094 61.083-61.094 61.083L115 128.802zM103.585.7l50.995 20.604-20.603 50.995-50.995-20.603z"/><g transform="translate(13 30.719)"><use fill="#000" filter="url(#a)" xlink:href="#b"/><use fill="#FF0D6A" xlink:href="#b"/><path d="M.41 107h213v14a8 8 0 01-8 8h-197a8 8 0 01-8-8v-14z" fill="#D12869"/><circle fill="#D12869" cx="20.411" cy="22" r="11"/><path d="M40.41 18.345h1.583l2.75 6.618h.102l2.75-6.618h1.582v8.514h-1.24v-6.161h-.08l-2.548 6.148h-1.03l-2.548-6.152h-.08v6.165h-1.24v-8.514zM53.076 27c-.41 0-.781-.075-1.112-.224-.33-.15-.592-.37-.787-.66-.194-.289-.29-.643-.29-1.061 0-.364.07-.661.212-.894.142-.233.332-.417.57-.553a2.92 2.92 0 01.8-.306c.295-.068.596-.12.902-.156.388-.044.702-.08.943-.11.24-.029.416-.077.527-.143.111-.067.167-.175.167-.324v-.03c0-.363-.103-.644-.31-.843-.207-.2-.514-.3-.922-.3-.425 0-.759.092-1.002.275-.243.183-.411.388-.504.615l-1.185-.266c.21-.582.563-1 1.056-1.251a3.503 3.503 0 011.618-.379c.259 0 .533.03.823.09.29.06.563.169.82.328.258.16.467.385.629.676.162.29.242.669.242 1.134v4.24h-1.231v-.872h-.051c-.12.238-.336.467-.645.686-.31.219-.733.328-1.27.328zm.274-.998c.352 0 .651-.068.899-.203.247-.136.436-.314.567-.535.13-.22.196-.456.196-.708v-.823c-.059.058-.188.109-.388.153-.2.045-.41.082-.633.113l-.54.074a2.641 2.641 0 00-.938.285c-.26.143-.39.38-.39.713 0 .308.115.54.345.696.231.157.525.235.882.235zm4.602.857v-6.386h1.262v6.386H57.95zm.637-7.35a.789.789 0 01-.563-.222.71.71 0 01-.234-.535c0-.207.078-.385.234-.532a.793.793 0 01.563-.22c.217 0 .404.073.561.22a.701.701 0 01.237.532.708.708 0 01-.237.535.79.79 0 01-.56.222zm3.582 3.558v3.792h-1.261v-6.386h1.21v1.04h.08c.15-.338.384-.61.703-.815.319-.205.722-.308 1.208-.308.664 0 1.198.204 1.601.611.404.408.606 1.006.606 1.796v4.062h-1.262v-3.912c0-.463-.122-.825-.367-1.087-.244-.262-.58-.393-1.008-.393-.439 0-.8.14-1.084.418-.284.278-.426.673-.426 1.182zm9.812 3.792h-1.384l3.11-8.514h1.505l3.11 8.514h-1.384l-.79-2.253h-3.374l-.793 2.253zm1.173-3.334h2.615l-1.274-3.634h-.067l-1.274 3.634zm9.04 3.463c-.627 0-1.166-.141-1.618-.422a2.774 2.774 0 01-1.04-1.166c-.241-.497-.362-1.065-.362-1.705 0-.651.123-1.225.37-1.72a2.817 2.817 0 011.05-1.165c.45-.28.98-.42 1.587-.42.493 0 .931.09 1.317.268.385.18.696.43.934.75.238.322.379.698.424 1.127h-1.228a1.45 1.45 0 00-.462-.773c-.24-.216-.561-.324-.964-.324-.525 0-.95.2-1.271.6-.322.401-.483.944-.483 1.628 0 .696.158 1.248.476 1.657.318.408.744.613 1.278.613.36 0 .668-.097.924-.291.256-.194.424-.463.502-.807h1.228a2.33 2.33 0 01-.41 1.106 2.35 2.35 0 01-.913.765c-.38.186-.827.279-1.339.279zm6.745 0c-.627 0-1.166-.141-1.617-.422a2.774 2.774 0 01-1.04-1.166c-.242-.497-.363-1.065-.363-1.705 0-.651.124-1.225.371-1.72a2.817 2.817 0 011.048-1.165c.452-.28.981-.42 1.589-.42.492 0 .93.09 1.316.268.385.18.697.43.934.75.238.322.38.698.424 1.127h-1.227a1.45 1.45 0 00-.462-.773c-.24-.216-.562-.324-.964-.324-.526 0-.95.2-1.272.6-.322.401-.483.944-.483 1.628 0 .696.159 1.248.477 1.657.317.408.743.613 1.278.613.36 0 .668-.097.924-.291.256-.194.423-.463.502-.807h1.227a2.33 2.33 0 01-.409 1.106 2.35 2.35 0 01-.913.765c-.381.186-.828.279-1.34.279zm6.746 0c-.608 0-1.138-.138-1.59-.412a2.787 2.787 0 01-1.055-1.154c-.25-.494-.376-1.07-.376-1.727 0-.662.125-1.241.376-1.737.25-.497.602-.882 1.054-1.156.453-.275.983-.412 1.59-.412.611 0 1.142.137 1.593.412.452.274.802.66 1.053 1.156.25.496.375 1.075.375 1.737 0 .657-.125 1.233-.375 1.727-.25.495-.601.88-1.053 1.154-.451.274-.982.412-1.592.412zm.004-1.044c.396 0 .723-.102.98-.308.258-.205.45-.478.574-.82.126-.343.188-.718.188-1.125a3.27 3.27 0 00-.188-1.127 1.836 1.836 0 00-.573-.825c-.258-.206-.585-.31-.981-.31-.397 0-.724.104-.983.31a1.843 1.843 0 00-.578.825c-.126.344-.19.72-.19 1.127 0 .407.064.782.19 1.124.127.343.32.616.578.821.259.206.586.308.983.308zm8.526-1.733v-3.738h1.265v6.386h-1.24v-1.106h-.068c-.149.34-.387.624-.715.85-.327.226-.734.339-1.221.339-.621 0-1.131-.203-1.53-.61-.397-.405-.596-1.005-.596-1.797v-4.062h1.261v3.912c0 .435.123.782.367 1.04.245.257.563.386.954.386.236 0 .471-.058.706-.175a1.49 1.49 0 00.587-.53c.156-.236.232-.535.23-.895zm4.218-1.144v3.792h-1.261v-6.386h1.21v1.04h.08c.15-.338.384-.61.703-.815.32-.205.722-.308 1.208-.308.664 0 1.198.204 1.601.611.404.408.606 1.006.606 1.796v4.062h-1.262v-3.912c0-.463-.122-.825-.367-1.087-.244-.262-.58-.393-1.008-.393-.439 0-.8.14-1.084.418-.284.278-.426.673-.426 1.182zm8.859-2.594v.998h-1.329v3.509c0 .36.078.592.234.696a.955.955 0 00.542.156c.101 0 .19-.007.266-.02l.177-.034.228 1.027a2.278 2.278 0 01-.314.085 2.64 2.64 0 01-.504.048 2.242 2.242 0 01-.93-.177 1.59 1.59 0 01-.697-.565c-.175-.254-.263-.573-.263-.959v-3.766h-.95v-.998h.95v-1.53h1.261v1.53h1.329z" fill="#BD2A67"/><path d="M11.41 66.414h8.38V72h-8.38v-5.586zm7.866 0h8.379V72h-8.38v-5.586zm7.865 0h8.379V72h-8.38v-5.586zm7.865 0h8.379V72h-8.38v-5.586zm23.906 0h8.379V72h-8.38v-5.586zm7.865 0h8.379V72h-8.38v-5.586zm7.865 0h8.379V72h-8.38v-5.586zm7.865 0h8.379V72h-8.38v-5.586zm7.865 0h8.379V72h-8.38v-5.586zm7.865 0h8.379V72h-8.38v-5.586zm7.865 0h8.379V72h-8.38v-5.586zm7.865 0h8.379V72h-8.38v-5.586zm7.865 0h8.379V72h-8.38v-5.586zm-110.421 10h8.379V82h-8.38v-5.586zm7.865 0h8.379V82h-8.38v-5.586zm7.865 0h8.379V82h-8.38v-5.586zm7.865 0h8.379V82h-8.38v-5.586zm7.865 0h8.379V82h-8.38v-5.586zm7.865 0h8.379V82h-8.38v-5.586zm23.906 0h8.379V82h-8.38v-5.586zm7.865 0h8.379V82h-8.38v-5.586zm23.905 0h8.38V82h-8.38v-5.586zm7.865 0h8.38V82h-8.38v-5.586zm7.865 0h8.38V82h-8.38v-5.586zm-110.731 10h8.379V92h-8.38v-5.586zm7.865 0h8.379V92h-8.38v-5.586zm23.906 0h8.379V92h-8.38v-5.586zm7.865 0h8.379V92h-8.38v-5.586zm7.865 0h8.379V92h-8.38v-5.586zm7.865 0h8.379V92h-8.38v-5.586zm7.865 0h8.379V92h-8.38v-5.586zm23.905 0h8.38V92h-8.38v-5.586zm7.865 0h8.38V92h-8.38v-5.586zm7.865 0h8.38V92h-8.38v-5.586z" fill="#D12869" fill-rule="nonzero"/></g><g transform="translate(201.5 17.219)"><circle fill="#14CCB7" cx="19.5" cy="19.5" r="19.5"/><g transform="translate(7.5 7.5)"><mask id="d" fill="#fff"><use xlink:href="#c"/></mask><use fill="#000" xlink:href="#c"/><g mask="url(#d)" fill="#FFF"><path d="M0 0h24v24H0z"/></g></g></g></g></svg>