<svg viewBox="0 0 226 271" xmlns="http://www.w3.org/2000/svg" xmlns:xlink="http://www.w3.org/1999/xlink"><defs><filter x="-21.4%" y="-10.5%" width="142.9%" height="121%" filterUnits="objectBoundingBox" id="a"><feOffset in="SourceAlpha" result="shadowOffsetOuter1"/><feGaussianBlur stdDeviation="8" in="shadowOffsetOuter1" result="shadowBlurOuter1"/><feColorMatrix values="0 0 0 0 0.105882353 0 0 0 0 0.266666667 0 0 0 0 0.474509804 0 0 0 0.15 0" in="shadowBlurOuter1"/></filter><filter x="-21.4%" y="-10.5%" width="142.9%" height="121%" filterUnits="objectBoundingBox" id="c"><feOffset in="SourceAlpha" result="shadowOffsetOuter1"/><feGaussianBlur stdDeviation="8" in="shadowOffsetOuter1" result="shadowBlurOuter1"/><feColorMatrix values="0 0 0 0 0.105882353 0 0 0 0 0.266666667 0 0 0 0 0.474509804 0 0 0 0.15 0" in="shadowBlurOuter1"/></filter><rect id="d" x="0" y="0" width="112" height="228.302" rx="16"/><path d="M16 0h80c8.837 0 16 7.163 16 16v196.81c0 8.836-7.163 16-16 16H16c-8.837 0-16-7.164-16-16V16C0 7.163 7.163 0 16 0z" id="b"/></defs><g fill="none" fill-rule="evenodd"><path stroke="#979797" fill="#D8D8D8" d="M139.32 94.608l5.22.92-.173.985-5.22-.92z"/><g transform="rotate(10 -23.016 593.632)"><use fill="#000" filter="url(#a)" xlink:href="#b"/><use fill="#FFF" xlink:href="#b"/></g><path d="M106.856 41.463l92.826 16.368a2 2 0 011.622 2.317l-29.612 167.937a2 2 0 01-2.317 1.622L76.55 213.34a2 2 0 01-1.623-2.316L104.54 43.086a2 2 0 012.317-1.623z" fill="#FF0D6A"/><path d="M91.838 185.95l44.71 7.884a6 6 0 014.867 6.95l-.712 4.039a6 6 0 01-6.95 4.867l-50.62-8.926 1.754-9.947a6 6 0 016.951-4.866zM107.397 97.712l44.71 7.883a6 6 0 014.867 6.951l-6.182 35.06a6 6 0 01-6.95 4.866l-50.62-8.925 7.224-40.968a6 6 0 016.95-4.867zM170.467 162.143c4.46.786 7.463 4.896 6.708 9.179l-4.103 23.266-48.452-8.544c-4.46-.786-7.463-4.896-6.708-9.179l2.735-15.51c.755-4.284 4.983-7.118 9.443-6.332l40.377 7.12zM183.23 89.76c4.46.786 7.45 4.972 6.678 9.35l-1.398 7.929-48.453-8.544c-4.46-.786-7.45-4.973-6.677-9.352.772-4.378 5.013-7.29 9.473-6.503l40.377 7.12z" fill="#D12869"/><g transform="rotate(10 -213.34 649.541)" fill="#D12869"><circle cx="7" cy="7" r="7"/><path d="M18.2 10.15V5.423h7.09v4.727H18.2zm6.875 0V5.423h7.09v4.727h-7.09zm6.875 0V5.423h7.09v4.727h-7.09zm6.875 0V5.423h7.09v4.727h-7.09zm6.875 0V5.423h7.09v4.727H45.7zm6.875 0V5.423h7.09v4.727h-7.09zm6.875 0V5.423h7.09v4.727h-7.09zm-41.25 7v-4.727h7.09v4.727H18.2zm6.875 0v-4.727h7.09v4.727h-7.09zm6.875 0v-4.727h7.09v4.727h-7.09z" fill-rule="nonzero"/></g><g><g transform="rotate(-10 197.73 -57.38)"><use fill="#000" filter="url(#c)" xlink:href="#d"/><use fill="#FFF" xlink:href="#d"/><path d="M9 27.5A1.5 1.5 0 007.5 29v170.543a1.5 1.5 0 001.5 1.5h94a1.5 1.5 0 001.5-1.5V29a1.5 1.5 0 00-1.5-1.5H9z" stroke="#FF0D6A" fill="#FF0D6A"/><g transform="translate(17 91)" fill="#D12869"><rect width="19" height="19" rx="3"/><rect x="30" width="19" height="19" rx="3"/><rect x="60" width="19" height="19" rx="3"/></g><ellipse stroke="#EDF3F7" cx="55.763" cy="214.74" rx="8.763" ry="8.74"/></g><g transform="rotate(-10 899.894 -193.676)"><rect fill="#D12869" y="1" width="9" height="9" rx="2"/><path d="M14 5V1.563h5.156V5H14zm5 0V1.563h5.156V5H19zm5 0V1.563h5.156V5H24zm5 0V1.563h5.156V5H29zm5 0V1.563h5.156V5H34zM14 10V6.992h4.512V10H14zm4.375 0V6.992h4.512V10h-4.512zm4.375 0V6.992h4.512V10H22.75zM14 14v-3.008h4.512V14H14zm4.375 0v-3.008h4.512V14h-4.512zm4.375 0v-3.008h4.512V14H22.75zm4.375 0v-3.008h4.512V14h-4.512zm4.375 0v-3.008h4.512V14H31.5z" fill="#D12869" fill-rule="nonzero"/><rect fill="#D12869" y="20" width="9" height="9" rx="2"/><path d="M14 24v-3.437h5.156V24H14zm5 0v-3.437h5.156V24H19zm5 0v-3.437h5.156V24H24zm5 0v-3.437h5.156V24H29zm5 0v-3.437h5.156V24H34zM14 29v-3.008h4.512V29H14zm4.375 0v-3.008h4.512V29h-4.512zm4.375 0v-3.008h4.512V29H22.75zM14 33v-3.008h4.512V33H14zm4.375 0v-3.008h4.512V33h-4.512zm4.375 0v-3.008h4.512V33H22.75zm4.375 0v-3.008h4.512V33h-4.512zm4.375 0v-3.008h4.512V33H31.5z" fill="#D12869" fill-rule="nonzero"/><rect fill="#D12869" y="40" width="9" height="9" rx="2"/><path d="M14 44v-3.437h5.156V44H14zm5 0v-3.437h5.156V44H19zm5 0v-3.437h5.156V44H24zm5 0v-3.437h5.156V44H29zm5 0v-3.437h5.156V44H34zM14 49v-3.008h4.512V49H14zm4.375 0v-3.008h4.512V49h-4.512zm4.375 0v-3.008h4.512V49H22.75zM14 53v-3.008h4.512V53H14zm4.375 0v-3.008h4.512V53h-4.512zm4.375 0v-3.008h4.512V53H22.75zm4.375 0v-3.008h4.512V53h-4.512zm4.375 0v-3.008h4.512V53H31.5z" fill="#D12869" fill-rule="nonzero"/><path d="M.59 35.5h86.217M.59 14.5h86.217" stroke="#E72B6E" stroke-linecap="square"/></g><path d="M26.52 58.49l92.572-16.322a2 2 0 012.317 1.622l9.03 51.21-96.512 17.018-9.03-51.21a2 2 0 011.623-2.317z" fill="#E72B6E"/><path d="M79.745 56.261c-2.01.355-3.166 1.853-4.082 3.62l.887.905c.828-1.684 1.78-3.062 3.402-3.348 1.864-.329 3.652.749 4.25 2.46l-4.628.817.208 1.176 5.824-1.027c-.01-.2-.033-.398-.068-.595-.474-2.69-3.073-4.487-5.793-4.008" fill="#BD2A67"/><path d="M81.258 64.84c-1.985.35-3.596-1.132-5.701-3.354-2.106-2.221-3.999-3.781-6.432-3.352-2.72.48-4.548 3.058-4.073 5.748.474 2.69 3.073 4.487 5.793 4.008 2.006-.354 3.162-1.848 4.077-3.61l-.883-.914c-.827 1.684-1.78 3.061-3.401 3.347-2.067.365-4.04-1-4.4-3.04-.36-2.041 1.028-3.998 3.094-4.363 1.985-.35 3.51 1.058 5.697 3.351 2.187 2.293 4.003 3.785 6.436 3.356a5.017 5.017 0 004.05-3.924l-1.305.23a3.816 3.816 0 01-2.952 2.518" fill="#BD2A67"/><path d="M36.423 80.1l81.739-14.413a2 2 0 012.317 1.622l1.91 10.833a2 2 0 01-1.623 2.317L39.027 94.872a2 2 0 01-2.317-1.623L34.8 82.416a2 2 0 011.623-2.317z" fill="#FF0D6A"/><text font-family="Helvetica" font-size="6" fill="#BD2A67" transform="rotate(-10 197.73 -57.38)"><tspan x="18.204" y="59.668">æpp url</tspan></text></g></g></svg>