<svg viewBox="0 0 183 198" xmlns="http://www.w3.org/2000/svg" xmlns:xlink="http://www.w3.org/1999/xlink"><defs><filter x="-8.5%" y="-19.6%" width="117%" height="139.1%" filterUnits="objectBoundingBox" id="k"><feOffset in="SourceAlpha" result="shadowOffsetOuter1"/><feGaussianBlur stdDeviation="4.5" in="shadowOffsetOuter1" result="shadowBlurOuter1"/><feColorMatrix values="0 0 0 0 0.105882353 0 0 0 0 0.266666667 0 0 0 0 0.474509804 0 0 0 0.15 0" in="shadowBlurOuter1"/></filter><filter x="-16.7%" y="-27.6%" width="133.3%" height="155.2%" filterUnits="objectBoundingBox" id="c"><feOffset in="SourceAlpha" result="shadowOffsetOuter1"/><feGaussianBlur stdDeviation="8" in="shadowOffsetOuter1" result="shadowBlurOuter1"/><feColorMatrix values="0 0 0 0 0.105882353 0 0 0 0 0.266666667 0 0 0 0 0.474509804 0 0 0 0.2 0" in="shadowBlurOuter1"/></filter><filter x="-16.7%" y="-27.6%" width="133.3%" height="155.2%" filterUnits="objectBoundingBox" id="e"><feOffset in="SourceAlpha" result="shadowOffsetOuter1"/><feGaussianBlur stdDeviation="8" in="shadowOffsetOuter1" result="shadowBlurOuter1"/><feColorMatrix values="0 0 0 0 0.105882353 0 0 0 0 0.266666667 0 0 0 0 0.474509804 0 0 0 0.2 0" in="shadowBlurOuter1"/></filter><filter x="-8.5%" y="-13.5%" width="117%" height="127%" filterUnits="objectBoundingBox" id="a"><feOffset in="SourceAlpha" result="shadowOffsetOuter1"/><feGaussianBlur stdDeviation="4.5" in="shadowOffsetOuter1" result="shadowBlurOuter1"/><feColorMatrix values="0 0 0 0 0.105882353 0 0 0 0 0.266666667 0 0 0 0 0.474509804 0 0 0 0.15 0" in="shadowBlurOuter1"/></filter><filter x="-16.7%" y="-27.6%" width="133.3%" height="155.2%" filterUnits="objectBoundingBox" id="g"><feOffset in="SourceAlpha" result="shadowOffsetOuter1"/><feGaussianBlur stdDeviation="8" in="shadowOffsetOuter1" result="shadowBlurOuter1"/><feColorMatrix values="0 0 0 0 0.105882353 0 0 0 0 0.266666667 0 0 0 0 0.474509804 0 0 0 0.2 0" in="shadowBlurOuter1"/></filter><filter x="-16.7%" y="-27.6%" width="133.3%" height="155.2%" filterUnits="objectBoundingBox" id="i"><feOffset in="SourceAlpha" result="shadowOffsetOuter1"/><feGaussianBlur stdDeviation="8" in="shadowOffsetOuter1" result="shadowBlurOuter1"/><feColorMatrix values="0 0 0 0 0.105882353 0 0 0 0 0.266666667 0 0 0 0 0.474509804 0 0 0 0.2 0" in="shadowBlurOuter1"/></filter><path d="M14 62h131c7.732 0 14 6.268 14 14v72c0 7.732-6.268 14-14 14H14c-7.732 0-14-6.268-14-14V76c0-7.732 6.268-14 14-14z" id="b"/><path d="M4 0h136a4 4 0 014 4v79a4 4 0 01-4 4H4a4 4 0 01-4-4V4a4 4 0 014-4z" id="f"/><path d="M4 0h136a4 4 0 014 4v79a4 4 0 01-4 4H4a4 4 0 01-4-4V4a4 4 0 014-4z" id="j"/><path d="M4 0h136a4 4 0 014 4v79a4 4 0 01-4 4H4a4 4 0 01-4-4V4a4 4 0 014-4z" id="d"/><path d="M71.004 102a8.88 8.88 0 00-.013.486c0 4.83 3.918 8.746 8.752 8.746 4.834 0 8.752-3.916 8.752-8.746a8.88 8.88 0 00-.013-.486H159v59c0 5.523-4.477 10-10 10H10c-5.523 0-10-4.477-10-10v-59h71.004z" id="l"/><path d="M4 0h136a4 4 0 014 4v79a4 4 0 01-4 4H4a4 4 0 01-4-4V4a4 4 0 014-4z" id="h"/></defs><g fill="none" fill-rule="evenodd"><g transform="translate(12 15)"><use fill="#000" filter="url(#a)" xlink:href="#b"/><use fill="#FFF" xlink:href="#b"/></g><g transform="rotate(-4 380.004 -221.138)"><use fill="#000" filter="url(#c)" xlink:href="#d"/><use fill="#203040" xlink:href="#d"/><text font-family="BLOKKNeue-Regular, BLOKK Neue" font-size="12" fill="#4E5A66"><tspan x="75.226" y="42.85">··· ··· </tspan> <tspan x="112.773" y="54.85">···</tspan> <tspan x="75.226" y="66.85">··· ··· </tspan> <tspan x="112.773" y="78.85">···</tspan> <tspan x="75.226" y="90.85">Q8R cgH </tspan> <tspan x="112.773" y="102.85">P1e</tspan></text><path d="M0 72.5h144V83a4 4 0 01-4 4H4a4 4 0 01-4-4V72.5z" fill="#001833"/><ellipse fill="#4E5A66" cx="12.364" cy="12.325" rx="7.273" ry="7.25"/><path d="M26.523 17.57h-1.884v-5.817h1.943c.572 0 1.062.116 1.47.348.409.232.722.564.94.997.22.433.329.951.329 1.555 0 .606-.11 1.127-.33 1.563-.22.435-.538.77-.955 1.004-.418.234-.922.35-1.513.35zm-1.006-.766h.957c.663 0 1.16-.186 1.49-.558.329-.373.493-.903.493-1.593 0-.685-.162-1.212-.487-1.58-.325-.37-.805-.553-1.442-.553h-1.011v4.284zm6.097.863c-.277 0-.526-.05-.749-.153a1.242 1.242 0 01-.53-.45 1.288 1.288 0 01-.196-.726c0-.248.048-.452.144-.61.095-.16.223-.286.383-.379.16-.093.34-.162.539-.209.198-.046.401-.081.608-.106l.634-.075a.932.932 0 00.356-.098c.074-.046.112-.12.112-.222v-.02c0-.248-.07-.44-.209-.577-.14-.136-.346-.204-.62-.204-.287 0-.512.062-.675.187a1.01 1.01 0 00-.34.42l-.798-.181c.142-.398.379-.683.711-.855a2.331 2.331 0 011.09-.259c.174 0 .359.02.554.061.195.041.38.116.552.225.174.109.315.263.424.462.109.198.163.457.163.775v2.898h-.83v-.597h-.034c-.081.163-.226.32-.434.469-.209.15-.494.224-.855.224zm.184-.681c.237 0 .439-.047.605-.14a.987.987 0 00.383-.365.943.943 0 00.132-.484v-.563c-.04.04-.127.075-.262.106-.134.03-.276.055-.426.076l-.364.051a1.76 1.76 0 00-.632.195c-.175.098-.262.26-.262.487 0 .21.077.37.233.476.155.107.353.16.593.16zm3.1.585v-4.364h.85v4.364h-.85zm.429-5.023a.527.527 0 01-.38-.152.489.489 0 01-.157-.365.53.53 0 01.537-.514c.146 0 .271.05.378.15.106.1.159.222.159.364a.487.487 0 01-.16.365.528.528 0 01-.377.152zm2.412-.795v5.818h-.85v-5.818h.85zm1.647 7.514c-.132 0-.249-.012-.35-.034a1.214 1.214 0 01-.218-.066l.205-.704c.235.062.431.067.59.014.157-.053.29-.222.396-.506l.125-.343-1.597-4.42h.909l1.105 3.386h.046l1.105-3.387h.912l-1.819 5c-.123.34-.3.6-.532.784-.232.184-.524.276-.877.276zm6.705-1.696h-.932l2.094-5.818h1.014l2.094 5.818h-.932l-.531-1.54h-2.273l-.534 1.54zm.79-2.279h1.761l-.858-2.483h-.045l-.858 2.483zm6.088 2.367c-.423 0-.786-.096-1.09-.288a1.887 1.887 0 01-.7-.797 2.658 2.658 0 01-.244-1.165c0-.445.083-.837.25-1.176.166-.34.402-.604.706-.796.304-.191.66-.287 1.07-.287.33 0 .626.061.886.184a1.552 1.552 0 01.915 1.283h-.827a.994.994 0 00-.311-.53c-.162-.147-.379-.22-.65-.22-.354 0-.64.136-.856.41-.217.273-.325.644-.325 1.112 0 .475.107.853.32 1.132.215.28.502.42.861.42a.99.99 0 00.623-.2.926.926 0 00.338-.55h.826c-.03.281-.122.533-.275.755a1.588 1.588 0 01-.615.523c-.257.126-.558.19-.902.19zm4.542 0c-.422 0-.785-.096-1.09-.288a1.887 1.887 0 01-.7-.797 2.658 2.658 0 01-.244-1.165c0-.445.084-.837.25-1.176.167-.34.402-.604.706-.796.304-.191.66-.287 1.07-.287.331 0 .627.061.886.184.26.122.47.293.63.512.16.22.255.477.285.77h-.827a.994.994 0 00-.31-.528c-.163-.148-.38-.222-.65-.222-.354 0-.64.137-.856.41-.217.274-.326.645-.326 1.113 0 .475.107.853.321 1.132.214.28.501.42.861.42a.99.99 0 00.622-.2.926.926 0 00.338-.55h.827c-.03.281-.122.533-.276.755a1.588 1.588 0 01-.615.523c-.256.126-.557.19-.902.19zm4.543 0c-.41 0-.766-.094-1.071-.281a1.895 1.895 0 01-.71-.789c-.169-.338-.253-.731-.253-1.18 0-.453.084-.849.253-1.188.168-.339.405-.602.71-.79a2.003 2.003 0 011.071-.28c.411 0 .768.093 1.072.28.304.188.54.451.71.79.168.34.252.735.252 1.188 0 .449-.084.842-.253 1.18-.168.338-.405.601-.709.789a2.001 2.001 0 01-1.072.28zm.003-.713c.267 0 .487-.07.66-.21.174-.14.302-.328.387-.561.084-.234.126-.49.126-.769 0-.278-.042-.535-.126-.77a1.255 1.255 0 00-.387-.564c-.173-.14-.393-.211-.66-.211s-.488.07-.662.211a1.26 1.26 0 00-.39.564 2.241 2.241 0 00-.127.77c0 .278.042.535.128.769.085.233.215.42.389.56.174.14.395.21.662.21zm5.741-1.185v-2.554h.853v4.364h-.836v-.756h-.045c-.1.233-.261.427-.482.581-.22.154-.494.232-.822.232-.419 0-.762-.14-1.03-.417-.268-.277-.402-.687-.402-1.228v-2.776h.85v2.673c0 .298.082.535.247.71a.839.839 0 00.642.265 1.05 1.05 0 00.87-.482c.106-.162.157-.366.155-.612zm2.841-.781v2.59h-.85v-4.363h.816v.71h.054c.1-.23.258-.416.473-.556.215-.14.486-.21.814-.21.447 0 .806.139 1.078.417.272.278.408.687.408 1.227v2.776h-.85v-2.673c0-.317-.082-.564-.247-.743-.165-.18-.39-.269-.679-.269a.992.992 0 00-.73.286c-.191.19-.287.46-.287.808zm5.966-1.773v.682h-.895v2.398c0 .246.053.405.158.476a.636.636 0 00.365.106.993.993 0 00.179-.014l.12-.023.153.702a1.753 1.753 0 01-.551.09 1.491 1.491 0 01-.627-.12 1.074 1.074 0 01-.469-.386c-.118-.174-.177-.392-.177-.655v-2.574h-.64v-.682h.64v-1.045h.85v1.045h.894z" fill="#76818C"/><path d="M121.523 15.448V10.72h7.09v4.727h-7.09zm6.875 0V10.72h7.09v4.727h-7.09zm0 7V17.72h7.09v4.727h-7.09z" fill="#4E5A66"/><text font-family="BLOKKNeue-Regular, BLOKK Neue" font-size="11" fill="#4E5A66"><tspan x="10.25" y="65.473">Tn</tspan> <tspan x="17.125" y="72.473">g</tspan></text></g><g transform="rotate(1 -2599.26 1342.65)"><use fill="#000" filter="url(#e)" xlink:href="#f"/><use fill="#14CCB7" xlink:href="#f"/><text font-family="BLOKKNeue-Regular, BLOKK Neue" font-size="12" fill="#02BDAA"><tspan x="75.226" y="42.85">··· ··· </tspan> <tspan x="112.773" y="54.85">···</tspan> <tspan x="75.226" y="66.85">··· ··· </tspan> <tspan x="112.773" y="78.85">···</tspan> <tspan x="75.226" y="90.85">Q8R cgH </tspan> <tspan x="112.773" y="102.85">P1e</tspan></text><path d="M0 72.5h144V83a4 4 0 01-4 4H4a4 4 0 01-4-4V72.5z" fill="#D12869"/><ellipse fill="#05ADA8" cx="12.364" cy="12.325" rx="7.273" ry="7.25"/><path d="M25.148 11.753l1.619 4.738h.065l1.62-4.738h.949l-2.094 5.818h-1.014l-2.094-5.818h.949zm6.292 5.914c-.276 0-.526-.05-.748-.153a1.242 1.242 0 01-.53-.45 1.288 1.288 0 01-.196-.726c0-.248.048-.452.143-.61.096-.16.224-.286.384-.379.16-.093.34-.162.538-.209.2-.046.402-.081.608-.106l.635-.075a.932.932 0 00.355-.098c.075-.046.112-.12.112-.222v-.02c0-.248-.07-.44-.208-.577-.14-.136-.346-.204-.621-.204-.286 0-.511.062-.675.187a1.01 1.01 0 00-.34.42l-.798-.181c.142-.398.38-.683.712-.855a2.331 2.331 0 011.09-.259c.174 0 .358.02.554.061.195.041.379.116.552.225.173.109.314.263.423.462.11.198.164.457.164.775v2.898h-.83v-.597h-.034c-.081.163-.226.32-.435.469-.208.15-.493.224-.855.224zm.185-.681c.237 0 .438-.047.605-.14a.987.987 0 00.382-.365.943.943 0 00.132-.484v-.563c-.04.04-.127.075-.261.106-.135.03-.277.055-.426.076l-.364.051a1.76 1.76 0 00-.632.195c-.175.098-.263.26-.263.487 0 .21.078.37.233.476.156.107.353.16.594.16zm5.864-1.225v-2.554h.852v4.364h-.835v-.756h-.046c-.1.233-.26.427-.481.581-.221.154-.495.232-.823.232-.418 0-.762-.14-1.03-.417-.268-.277-.402-.687-.402-1.228v-2.776h.85v2.673c0 .298.082.535.247.71a.839.839 0 00.642.265 1.05 1.05 0 00.87-.482c.106-.162.158-.366.156-.612zm2.84-4.008v5.818h-.849v-5.818h.85zm3.18 1.454v.682h-.895v2.398c0 .246.052.405.157.476a.636.636 0 00.365.106.993.993 0 00.18-.014l.119-.023.153.702a1.753 1.753 0 01-.551.09 1.491 1.491 0 01-.626-.12 1.074 1.074 0 01-.47-.386c-.118-.174-.177-.392-.177-.655v-2.574h-.639v-.682h.64v-1.045h.849v1.045h.895zm3.653 4.364h-.932l2.094-5.818h1.014l2.094 5.818H50.5l-.531-1.54h-2.273l-.534 1.54zm.79-2.279h1.761l-.858-2.483h-.045l-.858 2.483zm6.088 2.367c-.423 0-.786-.096-1.09-.288a1.887 1.887 0 01-.7-.797 2.658 2.658 0 01-.244-1.165c0-.445.083-.837.25-1.176.166-.34.402-.604.706-.796.304-.191.66-.287 1.07-.287.33 0 .626.061.886.184a1.552 1.552 0 01.915 1.283h-.827a.994.994 0 00-.311-.53c-.162-.147-.379-.22-.65-.22-.354 0-.64.136-.856.41-.217.273-.325.644-.325 1.112 0 .475.107.853.32 1.132.215.28.502.42.861.42a.99.99 0 00.623-.2.926.926 0 00.338-.55h.826c-.03.281-.122.533-.275.755a1.588 1.588 0 01-.615.523c-.257.126-.558.19-.902.19zm4.542 0c-.422 0-.785-.096-1.09-.288a1.887 1.887 0 01-.7-.797 2.658 2.658 0 01-.244-1.165c0-.445.084-.837.25-1.176.167-.34.402-.604.706-.796.304-.191.66-.287 1.07-.287.331 0 .627.061.886.184.26.122.47.293.63.512.16.22.255.477.285.77h-.827a.994.994 0 00-.31-.528c-.163-.148-.38-.222-.65-.222-.354 0-.64.137-.856.41-.217.274-.326.645-.326 1.113 0 .475.107.853.321 1.132.214.28.501.42.861.42a.99.99 0 00.622-.2.926.926 0 00.338-.55h.827c-.03.281-.122.533-.276.755a1.588 1.588 0 01-.615.523c-.256.126-.557.19-.902.19zm4.543 0c-.41 0-.766-.094-1.071-.281a1.895 1.895 0 01-.71-.789c-.169-.338-.253-.731-.253-1.18 0-.453.084-.849.253-1.188.168-.339.405-.602.71-.79a2.003 2.003 0 011.071-.28c.411 0 .768.093 1.072.28.304.188.54.451.71.79.168.34.252.735.252 1.188 0 .449-.084.842-.253 1.18-.168.338-.405.601-.709.789a2.001 2.001 0 01-1.072.28zm.003-.713c.267 0 .487-.07.66-.21.174-.14.302-.328.387-.561.084-.234.126-.49.126-.769 0-.278-.042-.535-.126-.77a1.255 1.255 0 00-.387-.564c-.173-.14-.393-.211-.66-.211s-.488.07-.662.211a1.26 1.26 0 00-.39.564 2.241 2.241 0 00-.127.77c0 .278.042.535.128.769.085.233.215.42.389.56.174.14.395.21.662.21zm5.741-1.185v-2.554h.853v4.364h-.836v-.756h-.045c-.1.233-.261.427-.482.581-.22.154-.494.232-.822.232-.419 0-.762-.14-1.03-.417-.268-.277-.402-.687-.402-1.228v-2.776h.85v2.673c0 .298.082.535.247.71a.839.839 0 00.642.265 1.05 1.05 0 00.87-.482c.106-.162.157-.366.155-.612zm2.841-.781v2.59h-.85v-4.363h.816v.71h.054c.1-.23.258-.416.473-.556.215-.14.486-.21.814-.21.447 0 .806.139 1.078.417.272.278.408.687.408 1.227v2.776h-.85v-2.673c0-.317-.082-.564-.247-.743-.165-.18-.39-.269-.679-.269a.992.992 0 00-.73.286c-.191.19-.287.46-.287.808zm5.966-1.773v.682h-.895v2.398c0 .246.053.405.158.476a.636.636 0 00.365.106.993.993 0 00.179-.014l.12-.023.153.702a1.753 1.753 0 01-.551.09 1.491 1.491 0 01-.627-.12 1.074 1.074 0 01-.469-.386c-.118-.174-.177-.392-.177-.655v-2.574h-.64v-.682h.64v-1.045h.85v1.045h.894z" fill="#099C9D"/><path d="M121.523 15.448V10.72h7.09v4.727h-7.09zm6.875 0V10.72h7.09v4.727h-7.09zm0 7V17.72h7.09v4.727h-7.09z" fill="#05ADA8"/><text font-family="BLOKKNeue-Regular, BLOKK Neue" font-size="11" fill="#D12869"><tspan x="10.25" y="65.473">Tn</tspan> <tspan x="17.125" y="72.473">g</tspan></text></g><g transform="rotate(-5 894.084 -127.134)"><use fill="#000" filter="url(#g)" xlink:href="#h"/><use fill="#6948A1" xlink:href="#h"/><text font-family="BLOKKNeue-Regular, BLOKK Neue" font-size="12" fill="#E72B6E"><tspan x="75.226" y="42.85">··· ··· </tspan> <tspan x="112.773" y="54.85">···</tspan> <tspan x="75.226" y="66.85">··· ··· </tspan> <tspan x="112.773" y="78.85">···</tspan> <tspan x="75.226" y="90.85">Q8R cgH </tspan> <tspan x="112.773" y="102.85">P1e</tspan></text><path d="M0 72.5h144V83a4 4 0 01-4 4H4a4 4 0 01-4-4V72.5z" fill="#D12869"/><ellipse fill="#513482" cx="12.364" cy="12.325" rx="7.273" ry="7.25"/><path d="M28.574 13.59a1.647 1.647 0 00-.553-.816c-.256-.2-.578-.3-.964-.3-.328 0-.623.085-.885.253a1.71 1.71 0 00-.62.74c-.152.325-.228.722-.228 1.192 0 .471.076.87.229 1.196a1.7 1.7 0 00.629.741c.267.169.57.253.912.253.449 0 .818-.136 1.11-.409.29-.273.44-.647.452-1.122H27.23v-.724h2.287v.661c0 .49-.104.913-.312 1.272a2.147 2.147 0 01-.86.83 2.617 2.617 0 01-1.254.293c-.525 0-.985-.12-1.38-.362a2.452 2.452 0 01-.927-1.033c-.222-.446-.332-.977-.332-1.59 0-.62.111-1.153.335-1.6.223-.447.531-.79.923-1.031.392-.24.84-.36 1.341-.36.419 0 .799.08 1.14.242.343.162.626.387.852.675.225.288.37.62.434 1h-.903zM32.4 17.66c-.41 0-.767-.094-1.071-.281a1.895 1.895 0 01-.71-.789c-.17-.338-.254-.731-.254-1.18 0-.453.085-.849.253-1.188.169-.339.406-.602.71-.79a2.003 2.003 0 011.072-.28c.41 0 .768.093 1.072.28.304.188.54.451.709.79.168.34.253.735.253 1.188 0 .449-.085.842-.253 1.18-.169.338-.405.601-.709.789a2.001 2.001 0 01-1.072.28zm.002-.713c.267 0 .488-.07.66-.21.174-.14.303-.328.387-.561.085-.234.127-.49.127-.769 0-.278-.042-.535-.127-.77a1.255 1.255 0 00-.386-.564c-.173-.14-.394-.211-.66-.211-.268 0-.488.07-.663.211a1.26 1.26 0 00-.389.564 2.241 2.241 0 00-.128.77c0 .278.043.535.128.769.086.233.215.42.39.56.174.14.394.21.661.21zm6.71-3.739l-1.582 4.364h-.909l-1.585-4.364h.912l1.105 3.358h.045l1.103-3.358h.912zm2.68 4.452c-.428 0-.798-.093-1.108-.279a1.852 1.852 0 01-.718-.782c-.167-.336-.251-.73-.251-1.18 0-.448.084-.841.251-1.182.168-.341.403-.607.705-.799a1.94 1.94 0 011.061-.287c.33 0 .642.074.936.22.295.147.534.381.719.702.184.321.277.745.277 1.272v.3h-3.102c.01.421.13.745.355.972.225.228.52.341.883.341.243 0 .452-.052.628-.156a.869.869 0 00.378-.466l.804.145c-.097.354-.305.64-.625.855-.32.216-.718.324-1.193.324zm-1.228-2.65h2.267c-.002-.334-.102-.61-.3-.829-.2-.219-.464-.328-.793-.328-.23 0-.43.054-.601.16a1.176 1.176 0 00-.406.424c-.1.175-.155.366-.167.572zm4.046 2.562v-4.364h.82v.693h.046c.08-.234.22-.42.42-.555a1.2 1.2 0 01.688-.203c.12 0 .227.014.321.042a.895.895 0 01.25.117l-.272.71a.747.747 0 00-.174-.062.973.973 0 00-.221-.023 1.03 1.03 0 00-.735.277.924.924 0 00-.294.703v2.665h-.85zm4.037-2.591v2.59h-.85v-4.363h.816v.71h.054c.1-.23.258-.416.473-.556.215-.14.486-.21.814-.21.447 0 .806.139 1.078.417.271.278.407.687.407 1.227v2.776h-.85v-2.673c0-.317-.081-.564-.246-.743-.165-.18-.391-.269-.68-.269a.992.992 0 00-.73.286c-.19.19-.286.46-.286.808zm5.199 2.687c-.277 0-.526-.05-.749-.153a1.242 1.242 0 01-.53-.45 1.288 1.288 0 01-.196-.726c0-.248.048-.452.144-.61.095-.16.223-.286.383-.379.16-.093.34-.162.538-.209.2-.046.402-.081.608-.106l.635-.075a.932.932 0 00.356-.098c.074-.046.112-.12.112-.222v-.02c0-.248-.07-.44-.21-.577-.138-.136-.345-.204-.62-.204-.286 0-.51.062-.675.187a1.01 1.01 0 00-.339.42l-.798-.181c.142-.398.379-.683.711-.855a2.331 2.331 0 011.09-.259c.174 0 .359.02.554.061.195.041.38.116.552.225.174.109.315.263.424.462.109.198.163.457.163.775v2.898h-.83v-.597h-.034c-.081.163-.226.32-.434.469-.209.15-.494.224-.855.224zm.184-.681c.237 0 .439-.047.605-.14a.987.987 0 00.382-.365.943.943 0 00.133-.484v-.563c-.04.04-.127.075-.262.106-.134.03-.276.055-.426.076l-.364.051a1.76 1.76 0 00-.632.195c-.175.098-.262.26-.262.487 0 .21.077.37.233.476.155.107.353.16.593.16zm3.95-2.006v2.59h-.85v-4.363h.815v.71H58c.1-.23.258-.416.473-.556.215-.14.486-.21.814-.21.447 0 .806.139 1.078.417.272.278.408.687.408 1.227v2.776h-.85v-2.673c0-.317-.082-.564-.247-.743-.165-.18-.391-.269-.679-.269a.992.992 0 00-.73.286c-.191.19-.287.46-.287.808zm5.766 2.679c-.422 0-.785-.096-1.09-.288a1.887 1.887 0 01-.7-.797 2.658 2.658 0 01-.244-1.165c0-.445.083-.837.25-1.176.167-.34.402-.604.706-.796.304-.191.66-.287 1.07-.287.331 0 .627.061.886.184.26.122.47.293.63.512.16.22.254.477.285.77h-.827a.994.994 0 00-.311-.528c-.162-.148-.378-.222-.65-.222-.353 0-.639.137-.856.41-.217.274-.325.645-.325 1.113 0 .475.107.853.321 1.132.214.28.501.42.86.42a.99.99 0 00.623-.2.926.926 0 00.338-.55h.827c-.03.281-.122.533-.276.755a1.588 1.588 0 01-.615.523c-.256.126-.557.19-.902.19zm4.585 0c-.428 0-.797-.093-1.108-.279a1.852 1.852 0 01-.717-.782c-.168-.336-.251-.73-.251-1.18 0-.448.083-.841.251-1.182.168-.341.403-.607.705-.799a1.94 1.94 0 011.06-.287c.33 0 .642.074.937.22.294.147.534.381.719.702.184.321.277.745.277 1.272v.3h-3.103c.012.421.13.745.355.972.226.228.52.341.884.341.242 0 .452-.052.628-.156a.869.869 0 00.378-.466l.804.145c-.097.354-.305.64-.625.855-.32.216-.718.324-1.194.324zm-1.227-2.65h2.267c-.002-.334-.102-.61-.301-.829-.199-.219-.463-.328-.793-.328-.229 0-.429.054-.6.16a1.176 1.176 0 00-.407.424c-.1.175-.155.366-.166.572zm6.725 2.562h-.932l2.093-5.818h1.015l2.093 5.818h-.931l-.532-1.54h-2.272l-.534 1.54zm.79-2.279h1.76l-.857-2.483h-.046l-.858 2.483zm6.087 2.367c-.422 0-.785-.096-1.09-.288a1.887 1.887 0 01-.7-.797 2.658 2.658 0 01-.244-1.165c0-.445.084-.837.25-1.176.167-.34.402-.604.706-.796.304-.191.66-.287 1.07-.287.331 0 .627.061.886.184.26.122.47.293.63.512.16.22.255.477.285.77h-.827a.994.994 0 00-.31-.528c-.163-.148-.38-.222-.65-.222-.354 0-.64.137-.856.41-.217.274-.326.645-.326 1.113 0 .475.107.853.321 1.132.214.28.501.42.861.42a.99.99 0 00.622-.2.926.926 0 00.338-.55h.827c-.03.281-.122.533-.276.755a1.588 1.588 0 01-.615.523c-.256.126-.557.19-.902.19zm4.543 0c-.422 0-.786-.096-1.09-.288a1.887 1.887 0 01-.7-.797 2.658 2.658 0 01-.244-1.165c0-.445.083-.837.25-1.176.167-.34.402-.604.706-.796.304-.191.66-.287 1.07-.287.33 0 .626.061.886.184.26.122.47.293.63.512.16.22.254.477.285.77h-.827a.994.994 0 00-.311-.528c-.162-.148-.378-.222-.65-.222-.353 0-.639.137-.856.41-.217.274-.325.645-.325 1.113 0 .475.107.853.32 1.132.215.28.502.42.862.42a.99.99 0 00.622-.2.926.926 0 00.338-.55h.827c-.03.281-.123.533-.276.755a1.588 1.588 0 01-.615.523c-.257.126-.557.19-.902.19zm4.543 0c-.41 0-.766-.094-1.071-.281a1.895 1.895 0 01-.71-.789c-.17-.338-.253-.731-.253-1.18 0-.453.084-.849.252-1.188.169-.339.406-.602.71-.79a2.003 2.003 0 011.072-.28c.41 0 .768.093 1.072.28.304.188.54.451.709.79.168.34.253.735.253 1.188 0 .449-.085.842-.253 1.18-.169.338-.405.601-.709.789a2.001 2.001 0 01-1.072.28zm.002-.713c.268 0 .488-.07.661-.21.173-.14.302-.328.386-.561.085-.234.127-.49.127-.769 0-.278-.042-.535-.127-.77a1.255 1.255 0 00-.386-.564c-.173-.14-.393-.211-.66-.211-.268 0-.488.07-.662.211a1.26 1.26 0 00-.39.564 2.241 2.241 0 00-.128.77c0 .278.043.535.128.769.086.233.215.42.39.56.174.14.394.21.661.21zm5.742-1.185v-2.554h.852v4.364h-.835v-.756h-.045c-.1.233-.261.427-.482.581-.22.154-.495.232-.822.232-.419 0-.762-.14-1.03-.417-.268-.277-.402-.687-.402-1.228v-2.776h.85v2.673c0 .298.082.535.246.71a.839.839 0 00.642.265 1.05 1.05 0 00.871-.482c.105-.162.157-.366.155-.612zm2.84-.781v2.59h-.849v-4.363h.816v.71h.054c.1-.23.258-.416.473-.556.215-.14.486-.21.814-.21.447 0 .806.139 1.078.417.272.278.407.687.407 1.227v2.776h-.849v-2.673c0-.317-.082-.564-.247-.743-.165-.18-.391-.269-.68-.269a.992.992 0 00-.73.286c-.19.19-.286.46-.286.808zm5.967-1.773v.682h-.895v2.398c0 .246.052.405.158.476a.636.636 0 00.365.106.993.993 0 00.179-.014l.119-.023.153.702c-.049.019-.12.038-.211.058-.092.02-.205.03-.34.033a1.491 1.491 0 01-.626-.12 1.074 1.074 0 01-.469-.387c-.118-.174-.178-.392-.178-.655v-2.574h-.639v-.682h.64v-1.045h.849v1.045h.895z" fill="#442873"/><path d="M121.523 15.448V10.72h7.09v4.727h-7.09zm6.875 0V10.72h7.09v4.727h-7.09zm0 7V17.72h7.09v4.727h-7.09z" fill="#513482"/><text font-family="BLOKKNeue-Regular, BLOKK Neue" font-size="11" fill="#D12869"><tspan x="10.25" y="65.473">Tn</tspan> <tspan x="17.125" y="72.473">g</tspan></text></g><g transform="translate(19 95)"><use fill="#000" filter="url(#i)" xlink:href="#j"/><use fill="#FF0D6A" xlink:href="#j"/><path d="M0 72.5h144V83a4 4 0 01-4 4H4a4 4 0 01-4-4V72.5z" fill="#D12869"/><ellipse fill="#D12869" cx="12.364" cy="12.325" rx="7.273" ry="7.25"/><path d="M24.64 11.753h1.065l1.852 4.522h.068l1.852-4.522h1.066v5.818h-.836v-4.21h-.054l-1.715 4.201h-.694l-1.716-4.204h-.054v4.213h-.835v-5.818zm8.528 5.914c-.277 0-.526-.05-.749-.153a1.242 1.242 0 01-.53-.45 1.288 1.288 0 01-.196-.726c0-.248.048-.452.144-.61.095-.16.223-.286.383-.379.16-.093.34-.162.539-.209.198-.046.401-.081.607-.106l.635-.075a.932.932 0 00.356-.098c.074-.046.112-.12.112-.222v-.02c0-.248-.07-.44-.21-.577-.138-.136-.345-.204-.62-.204-.286 0-.51.062-.675.187a1.01 1.01 0 00-.339.42l-.798-.181c.142-.398.379-.683.711-.855a2.331 2.331 0 011.09-.259c.174 0 .359.02.554.061.195.041.38.116.552.225.174.109.315.263.424.462.109.198.163.457.163.775v2.898h-.83v-.597h-.034c-.081.163-.226.32-.434.469-.209.15-.494.224-.855.224zm.184-.681c.237 0 .439-.047.605-.14a.987.987 0 00.382-.365.943.943 0 00.133-.484v-.563c-.04.04-.127.075-.262.106-.134.03-.276.055-.426.076l-.364.051a1.76 1.76 0 00-.632.195c-.175.098-.262.26-.262.487 0 .21.077.37.233.476.155.107.353.16.593.16zm3.1.585v-4.364h.85v4.364h-.85zm.429-5.023a.527.527 0 01-.38-.152.489.489 0 01-.157-.365.53.53 0 01.537-.514c.146 0 .271.05.378.15.106.1.159.222.159.364a.487.487 0 01-.16.365.528.528 0 01-.377.152zm2.412 2.432v2.59h-.85v-4.363h.816v.71h.053c.1-.23.259-.416.474-.556.214-.14.486-.21.813-.21.447 0 .807.139 1.079.417.271.278.407.687.407 1.227v2.776h-.85v-2.673c0-.317-.082-.564-.246-.743-.165-.18-.391-.269-.68-.269a.992.992 0 00-.73.286c-.19.19-.286.46-.286.808zm6.608 2.59h-.932l2.093-5.817h1.015l2.093 5.818h-.931l-.532-1.54h-2.272l-.534 1.54zm.79-2.278h1.76l-.857-2.483h-.046l-.858 2.483zm6.087 2.367c-.422 0-.785-.096-1.09-.288a1.887 1.887 0 01-.7-.797 2.658 2.658 0 01-.244-1.165c0-.445.084-.837.25-1.176.167-.34.402-.604.706-.796.304-.191.66-.287 1.07-.287.331 0 .627.061.886.184.26.122.47.293.63.512.16.22.255.477.285.77h-.827a.994.994 0 00-.31-.528c-.163-.148-.38-.222-.65-.222-.354 0-.64.137-.856.41-.217.274-.326.645-.326 1.113 0 .475.107.853.321 1.132.214.28.501.42.861.42a.99.99 0 00.622-.2.926.926 0 00.338-.55h.827c-.03.281-.122.533-.276.755a1.588 1.588 0 01-.615.523c-.256.126-.557.19-.902.19zm4.543 0c-.422 0-.785-.096-1.09-.288a1.887 1.887 0 01-.7-.797 2.658 2.658 0 01-.244-1.165c0-.445.083-.837.25-1.176.167-.34.402-.604.706-.796.304-.191.66-.287 1.07-.287.33 0 .626.061.886.184.26.122.47.293.63.512.16.22.254.477.285.77h-.827a.994.994 0 00-.311-.528c-.162-.148-.378-.222-.65-.222-.353 0-.639.137-.856.41-.217.274-.325.645-.325 1.113 0 .475.107.853.32 1.132.215.28.502.42.862.42a.99.99 0 00.622-.2.926.926 0 00.338-.55h.827c-.03.281-.123.533-.276.755a1.588 1.588 0 01-.615.523c-.257.126-.557.19-.902.19zm4.543 0c-.41 0-.766-.094-1.071-.281a1.895 1.895 0 01-.71-.789c-.17-.338-.253-.731-.253-1.18 0-.453.084-.849.252-1.188.169-.339.406-.602.71-.79a2.003 2.003 0 011.072-.28c.41 0 .768.093 1.072.28.304.188.54.451.709.79.168.34.253.735.253 1.188 0 .449-.085.842-.253 1.18-.169.338-.405.601-.709.789a2.001 2.001 0 01-1.072.28zm.002-.713c.268 0 .488-.07.661-.21.173-.14.302-.328.386-.561.085-.234.127-.49.127-.769 0-.278-.042-.535-.127-.77a1.255 1.255 0 00-.386-.564c-.173-.14-.393-.211-.66-.211-.268 0-.488.07-.662.211a1.26 1.26 0 00-.39.564 2.241 2.241 0 00-.127.77c0 .278.042.535.127.769.086.233.215.42.39.56.174.14.394.21.661.21zm5.742-1.185v-2.554h.852v4.364h-.835v-.756h-.045c-.1.233-.261.427-.482.581-.22.154-.495.232-.822.232-.419 0-.762-.14-1.03-.417-.268-.277-.402-.687-.402-1.228v-2.776h.85v2.673c0 .298.082.535.246.71a.839.839 0 00.642.265 1.05 1.05 0 00.871-.482c.105-.162.157-.366.155-.612zm2.84-.781v2.59H69.6v-4.363h.816v.71h.054c.1-.23.258-.416.473-.556.215-.14.486-.21.814-.21.447 0 .806.139 1.078.417.272.278.407.687.407 1.227v2.776h-.849v-2.673c0-.317-.082-.564-.247-.743-.165-.18-.391-.269-.68-.269a.992.992 0 00-.73.286c-.19.19-.286.46-.286.808zm5.967-1.773v.682h-.895v2.398c0 .246.052.405.158.476a.636.636 0 00.365.106.993.993 0 00.179-.014l.119-.023.153.702c-.049.019-.12.038-.211.058-.092.02-.205.03-.34.033a1.491 1.491 0 01-.626-.12 1.074 1.074 0 01-.469-.387c-.118-.174-.178-.392-.178-.655v-2.574h-.639v-.682h.64v-1.045h.849v1.045h.895z" fill="#BD2A67"/><path d="M121.523 15.448V10.72h7.09v4.727h-7.09zm6.875 0V10.72h7.09v4.727h-7.09zm0 7V17.72h7.09v4.727h-7.09z" fill="#D12869"/><text font-family="BLOKKNeue-Regular, BLOKK Neue" font-size="11" fill="#D12869"><tspan x="10.25" y="65.473">Tn</tspan> <tspan x="17.125" y="72.473">g</tspan></text></g><g transform="translate(12 15)"><use fill="#000" filter="url(#k)" xlink:href="#l"/><use fill="#FFF" xlink:href="#l"/></g></g></svg>