<svg viewBox="0 0 217 268" xmlns="http://www.w3.org/2000/svg" xmlns:xlink="http://www.w3.org/1999/xlink"><defs><filter x="-21.4%" y="-10.5%" width="142.9%" height="121%" filterUnits="objectBoundingBox" id="a"><feOffset in="SourceAlpha" result="shadowOffsetOuter1"/><feGaussianBlur stdDeviation="8" in="shadowOffsetOuter1" result="shadowBlurOuter1"/><feColorMatrix values="0 0 0 0 0.105882353 0 0 0 0 0.266666667 0 0 0 0 0.474509804 0 0 0 0.15 0" in="shadowBlurOuter1"/></filter><filter x="-13%" y="-16.7%" width="125.9%" height="133.3%" filterUnits="objectBoundingBox" id="c"><feOffset in="SourceAlpha" result="shadowOffsetOuter1"/><feGaussianBlur stdDeviation="8" in="shadowOffsetOuter1" result="shadowBlurOuter1"/><feColorMatrix values="0 0 0 0 0.105882353 0 0 0 0 0.266666667 0 0 0 0 0.474509804 0 0 0 0.15 0" in="shadowBlurOuter1"/></filter><filter x="-180%" y="-180%" width="460%" height="460%" filterUnits="objectBoundingBox" id="e"><feOffset in="SourceAlpha" result="shadowOffsetOuter1"/><feGaussianBlur stdDeviation="8" in="shadowOffsetOuter1" result="shadowBlurOuter1"/><feColorMatrix values="0 0 0 0 0.105882353 0 0 0 0 0.266666667 0 0 0 0 0.474509804 0 0 0 0.15 0" in="shadowBlurOuter1"/></filter><filter x="-180%" y="-180%" width="460%" height="460%" filterUnits="objectBoundingBox" id="g"><feOffset in="SourceAlpha" result="shadowOffsetOuter1"/><feGaussianBlur stdDeviation="8" in="shadowOffsetOuter1" result="shadowBlurOuter1"/><feColorMatrix values="0 0 0 0 0.105882353 0 0 0 0 0.266666667 0 0 0 0 0.474509804 0 0 0 0.15 0" in="shadowBlurOuter1"/></filter><rect id="d" x="0" y="0" width="185" height="144" rx="2"/><rect id="f" x="1.333" y="1.333" width="13.333" height="13.333" rx="6.667"/><rect id="h" x="1.333" y="1.333" width="13.333" height="13.333" rx="6.667"/><path d="M16 0h80c8.837 0 16 7.163 16 16v196.81c0 8.836-7.163 16-16 16H16c-8.837 0-16-7.164-16-16V16C0 7.163 7.163 0 16 0z" id="b"/></defs><g fill="none" fill-rule="evenodd"><path stroke="#979797" fill="#D8D8D8" d="M103.2 90h5.3v1h-5.3z"/><g transform="translate(53 16)"><use fill="#000" filter="url(#a)" xlink:href="#b"/><use fill="#FFF" xlink:href="#b"/></g><path d="M62 43.3h94.258a2 2 0 012 2v170.528a2 2 0 01-2 2H62a2 2 0 01-2-2V45.3a2 2 0 012-2z" fill="#FF0D6A"/><path d="M72.3 188.2h45.4a6 6 0 016 6v4.1a6 6 0 01-6 6H66.3v-10.1a6 6 0 016-6zM72.3 98.6h45.4a6 6 0 016 6v35.6a6 6 0 01-6 6H66.3v-41.6a6 6 0 016-6zM145.6 151.1c4.529 0 8.2 3.526 8.2 7.875V182.6h-49.2c-4.529 0-8.2-3.526-8.2-7.875v-15.75c0-4.35 3.671-7.875 8.2-7.875h41zM145.6 77.6c4.529 0 8.2 3.604 8.2 8.05v8.05h-49.2c-4.529 0-8.2-3.604-8.2-8.05 0-4.446 3.671-8.05 8.2-8.05h41z" fill="#D12869"/><g transform="translate(65.6 48.2)" fill="#D12869"><circle cx="7" cy="7" r="7"/><path d="M18.2 10.15V5.423h7.09v4.727H18.2zm6.875 0V5.423h7.09v4.727h-7.09zm6.875 0V5.423h7.09v4.727h-7.09zm6.875 0V5.423h7.09v4.727h-7.09zm6.875 0V5.423h7.09v4.727H45.7zm6.875 0V5.423h7.09v4.727h-7.09zm6.875 0V5.423h7.09v4.727h-7.09zm-41.25 7v-4.727h7.09v4.727H18.2zm6.875 0v-4.727h7.09v4.727h-7.09zm6.875 0v-4.727h7.09v4.727h-7.09z" fill-rule="nonzero"/></g><g><g transform="translate(16 108)"><use fill="#000" filter="url(#c)" xlink:href="#d"/><use fill="#FFF" xlink:href="#d"/></g><path d="M22 181h171M22 145h171M22 217h171" stroke="#EDF3F7" stroke-width="2" stroke-linecap="square"/><g transform="translate(177 226)"><rect fill="#FF0D6A" width="16" height="16" rx="8"/><rect x="1.333" y="1.333" width="13.333" height="13.333" rx="6.667"/></g><path fill="#FFF" d="M188.914 232.007l-4.943 4.914-2.798-2.784.937-.951 1.861 1.846 3.991-3.963z"/><g transform="translate(177 120)"><rect fill="#FF0D6A" width="16" height="16" rx="8"/><rect x="1.333" y="1.333" width="13.333" height="13.333" rx="6.667"/></g><path fill="#FFF" d="M188.914 126.007l-4.943 4.914-2.798-2.784.937-.951 1.861 1.846 3.991-3.963z"/><g transform="translate(177 191)"><rect fill="#D3DCE6" width="16" height="16" rx="8"/><use fill="#000" filter="url(#e)" xlink:href="#f"/><use fill="#FFF" xlink:href="#f"/></g><g transform="translate(177 155)"><rect fill="#D3DCE6" width="16" height="16" rx="8"/><use fill="#000" filter="url(#g)" xlink:href="#h"/><use fill="#FFF" xlink:href="#h"/></g><text font-family="Helvetica" font-size="10" fill="#203040" transform="translate(16 108)"><tspan x="33" y="22">Daily Account</tspan></text><text font-family="Helvetica" font-size="10" fill="#203040" transform="translate(16 108)"><tspan x="33" y="58">Vault Account</tspan></text><text font-family="Helvetica" font-size="10" fill="#203040" transform="translate(16 108)"><tspan x="33" y="94">Governace Account</tspan></text><text font-family="Helvetica" font-size="10" fill="#203040" transform="translate(16 108)"><tspan x="33" y="129">Main Account</tspan></text><g transform="translate(23 121)"><rect fill="#203040" width="20" height="15" rx="2"/><rect fill="#14CCB7" y="36" width="20" height="15" rx="2"/><path fill="#4E5A66" d="M2 4h9v3H2z"/><path fill="#05ADA8" d="M2 40h9v3H2z"/><rect fill="#6948A1" y="72" width="20" height="15" rx="2"/><path fill="#513482" d="M2 76h9v3H2z"/><rect fill="#FF0D6A" y="108" width="20" height="15" rx="2"/><path fill="#E72B6E" d="M2 112h9v3H2z"/></g></g></g></svg>